<svg viewBox="0 0 256 256" width="256" height="256" xmlns="http://www.w3.org/2000/svg"><path fill="#ff3333" d="M128 4a124 124 0 1 0 124 124A124 124 0 0 0 128 4zm3.6 206q-7.5 7.5-19.5 7.5-9.5 0-14.5-5t-5-14q0-12.8 7.5-20.5t19.7-7.7q9.5 0 14.4 5t5 14.2q0 12.8-7.3 20.4zM180 97.5a36.2 36.2 0 0 1-7 11 82.4 82.4 0 0 1-13.4 12q-8.4 6-21 14l-.7 1.3-.7 16.2-2.4 3.3-28.5 4.7-3.3-2-1.6-31.2 1.2-3.6 23-11q12.7-6.5 12.6-14.8t-9-12Q121 81 104 80l-2.8-4.2 13-28 4.3-2a112.3 112.3 0 0 1 25.7 3.6 74 74 0 0 1 20 8.6 42.8 42.8 0 0 1 13.2 12.5A27.8 27.8 0 0 1 182 86a33.2 33.2 0 0 1-2 11.6z"/></svg>
