<svg xmlns="http://www.w3.org/2000/svg" width="256" height="256" viewBox="0 0 256 256"><defs><style>.a{fill:#a8a6af}.b{fill:#fff}</style></defs><title>error</title><circle class="a" cx="128" cy="128" r="127"/><path class="b" d="M106.9 121.2l-14-56.9a16.4 16.4 0 0 1-.9-5 17.3 17.3 0 0 1 3.7-11.2q3.7-4.6 8.4-4.6 8.4 0 17.5 11.6t16.8 31q2.1-1.7 18.3-19.4 13.4-14.6 17.6-17.7a14.4 14.4 0 0 1 8.7-3q5.7 0 10.6 5.6t5 11.4q0 5.4-5.8 5.7a4.7 4.7 0 0 0-2.5.4l-.6 2.1a15.6 15.6 0 0 1-2.3 3.5q-6.2 6.8-18.1 25.7Q156 121 154.2 123a11.1 11.1 0 0 0-2.8 7.1q0 7.6 4.9 20.7a108.3 108.3 0 0 0 13.4 25q3.6 5.5 3.6 7.3t-1.9 4.1a3.2 3.2 0 0 1 .8 2 3.6 3.6 0 0 1-1.3 3.1 57.2 57.2 0 0 1-6.2 3.5q0 6.5-5.4 6.5-2.3 0-6.5-2.8a19.3 19.3 0 0 1-5.7-5.2 8.7 8.7 0 0 0-3.3-2.6 6.8 6.8 0 0 1-2.6-1.2q-.9-.7-4.2-4.2a9.9 9.9 0 0 0-2.6-1.9q-3.1-1.3-6-6.9-1.4-3.5-7.6-13.1l-38 41.1a64.5 64.5 0 0 1-4.7 4.6q-2.8 2.4-4.4 2.4a4.2 4.2 0 0 1-3-1.1q-1.2-1.1-1.3-7.3l-1.4-1.5a8.4 8.4 0 0 1-1.3-3.4l-2.2-1.1a25.7 25.7 0 0 0-6-6.9l-.2-3.4-.7-3a12.1 12.1 0 0 1 1.4-4.3q1.4-3 13.7-17.9t15.2-17.7q10.8-10.1 11.5-13.3 2.1-8.8 7.5-10.4z"/></svg>
